<?xml version="1.0" standalone="no"?>
<!DOCTYPE svg PUBLIC "-//W3C//DTD SVG 1.1//EN" "http://www.w3.org/Graphics/SVG/1.1/DTD/svg11.dtd">
<svg version="1.1" xmlns="http://www.w3.org/2000/svg" viewBox="0 0 355.3421016490273 298.4056706021891" width="710.6842032980546" height="596.8113412043782"><!-- svg-source:excalidraw --><metadata></metadata><defs><style class="style-fonts">
      </style></defs><rect x="0" y="0" width="355.3421016490273" height="298.4056706021891" fill="#ffffff"></rect><g stroke-linecap="round"><g transform="translate(64.2348426040262 19.53259091747708) rotate(0 4.1155383033212445 132.75147086896934)"><path d="M1.18 -0.13 C2.54 44.49, 6.7 222.42, 7.89 266.75 M0.34 -1.25 C1.57 43.16, 5.7 220.46, 6.94 265.21" stroke="#1e1e1e" stroke-width="2" fill="none"></path></g></g><mask></mask><g stroke-linecap="round"><g transform="translate(10.434061354026198 285.3919659174771) rotate(0 167.23698947048746 -3.526969249602388)"><path d="M-0.43 -0.58 C54.98 -1.86, 277 -5.57, 332.7 -6.86 M1.54 1.74 C57.31 0.01, 279.65 -7.24, 334.91 -8.79" stroke="#1e1e1e" stroke-width="2" fill="none"></path></g></g><mask></mask><g stroke-linecap="round"><g transform="translate(72.5942176040262 244.25524716747708) rotate(0 25.676205961769426 19.004402687633416)"><path d="M-0.46 0.34 C7.71 6.93, 40.91 32.36, 49.41 38.54 M1.5 -0.53 C10.04 5.84, 43.73 30.48, 51.81 37.03" stroke="#1e1e1e" stroke-width="2" fill="none"></path></g></g><mask></mask><g stroke-linecap="round"><g transform="translate(71.6528113540262 244.32165341747708) rotate(0 -17.924167677518 21.778613547421998)"><path d="M-1 0.34 C-7.22 7.36, -30.94 35.53, -36.53 42.57 M0.68 -0.53 C-5.26 6.65, -28.49 36.68, -34.41 44.08" stroke="#1e1e1e" stroke-width="2" fill="none"></path></g></g><mask></mask><g stroke-linecap="round"><g transform="translate(54.2582801040262 15.97790341747708) rotate(0 94.63845083750783 -2.4056382838636665)"><path d="M-1.14 0 C30.56 -0.73, 158.51 -4.15, 190.42 -4.81 M0.46 -1.05 C32.06 -1.63, 158.32 -3.55, 189.89 -3.83" stroke="#1e1e1e" stroke-width="2" fill="none"></path></g></g><mask></mask><g stroke-linecap="round"><g transform="translate(104.7074988540262 14.36852841747708) rotate(0 -18.878673535641298 14.809057934638119)"><path d="M0.66 -1.11 C-5.46 3.81, -31.41 24.32, -37.91 29.71 M-0.45 0.92 C-6.55 5.95, -32.01 26.02, -38.42 30.73" stroke="#1e1e1e" stroke-width="2" fill="none"></path></g></g><mask></mask><g stroke-linecap="round"><g transform="translate(229.95103080686283 11.672357195280483) rotate(0 -0.6139217210374568 25.472416299935446)"><path d="M-0.13 -0.41 C0.11 8.18, 0.3 43.72, 0.43 52.62 M-1.66 -1.67 C-1.51 7.05, -0.92 41.87, -0.67 50.63" stroke="#1e1e1e" stroke-width="2" fill="none"></path></g></g><mask></mask></svg>