<?xml version="1.0" standalone="no"?>
<!DOCTYPE svg PUBLIC "-//W3C//DTD SVG 1.1//EN" "http://www.w3.org/Graphics/SVG/1.1/DTD/svg11.dtd">
<svg version="1.1" xmlns="http://www.w3.org/2000/svg" viewBox="0 0 355.3421016490273 298.4056706021891" width="710.6842032980546" height="596.8113412043782"><!-- svg-source:excalidraw --><metadata></metadata><defs><style class="style-fonts">
      </style></defs><rect x="0" y="0" width="355.3421016490273" height="298.4056706021891" fill="#ffffff"></rect><g stroke-linecap="round"><g transform="translate(64.2348426040262 19.53259091747708) rotate(0 4.1155383033212445 132.75147086896934)"><path d="M1.18 -0.13 C2.54 44.49, 6.7 222.42, 7.89 266.75 M0.34 -1.25 C1.57 43.16, 5.7 220.46, 6.94 265.21" stroke="#1e1e1e" stroke-width="2" fill="none"></path></g></g><mask></mask><g stroke-linecap="round"><g transform="translate(10.434061354026198 285.3919659174771) rotate(0 167.23698947048746 -3.526969249602388)"><path d="M-0.43 -0.58 C54.98 -1.86, 277 -5.57, 332.7 -6.86 M1.54 1.74 C57.31 0.01, 279.65 -7.24, 334.91 -8.79" stroke="#1e1e1e" stroke-width="2" fill="none"></path></g></g><mask></mask><g stroke-linecap="round"><g transform="translate(72.5942176040262 244.25524716747708) rotate(0 25.676205961769426 19.004402687633416)"><path d="M-0.46 0.34 C7.71 6.93, 40.91 32.36, 49.41 38.54 M1.5 -0.53 C10.04 5.84, 43.73 30.48, 51.81 37.03" stroke="#1e1e1e" stroke-width="2" fill="none"></path></g></g><mask></mask><g stroke-linecap="round"><g transform="translate(71.6528113540262 244.32165341747708) rotate(0 -17.924167677518 21.778613547421998)"><path d="M-1 0.34 C-7.22 7.36, -30.94 35.53, -36.53 42.57 M0.68 -0.53 C-5.26 6.65, -28.49 36.68, -34.41 44.08" stroke="#1e1e1e" stroke-width="2" fill="none"></path></g></g><mask></mask><g stroke-linecap="round"><g transform="translate(54.2582801040262 15.97790341747708) rotate(0 94.63845083750783 -2.4056382838636665)"><path d="M-1.14 0 C30.56 -0.73, 158.51 -4.15, 190.42 -4.81 M0.46 -1.05 C32.06 -1.63, 158.32 -3.55, 189.89 -3.83" stroke="#1e1e1e" stroke-width="2" fill="none"></path></g></g><mask></mask><g stroke-linecap="round"><g transform="translate(104.7074988540262 14.36852841747708) rotate(0 -18.878673535641298 14.809057934638119)"><path d="M0.66 -1.11 C-5.46 3.81, -31.41 24.32, -37.91 29.71 M-0.45 0.92 C-6.55 5.95, -32.01 26.02, -38.42 30.73" stroke="#1e1e1e" stroke-width="2" fill="none"></path></g></g><mask></mask><g stroke-linecap="round"><g transform="translate(229.95103080686283 11.672357195280483) rotate(0 -0.6139217210374568 25.472416299935446)"><path d="M-0.13 -0.41 C0.11 8.18, 0.3 43.72, 0.43 52.62 M-1.66 -1.67 C-1.51 7.05, -0.92 41.87, -0.67 50.63" stroke="#1e1e1e" stroke-width="2" fill="none"></path></g></g><mask></mask><g stroke-linecap="round" transform="translate(207.10728080686283 63.73485719528048) rotate(0 26.11328125 20.251953125)"><path d="M21.06 -0.12 C26.04 -1.13, 32.85 0.6, 37.78 2.76 C42.7 4.92, 48.38 9, 50.62 12.84 C52.85 16.69, 52.82 21.79, 51.2 25.83 C49.58 29.87, 45.74 34.72, 40.91 37.08 C36.07 39.45, 27.95 40.39, 22.17 40.01 C16.39 39.62, 9.85 38.06, 6.25 34.78 C2.64 31.5, 0.69 24.92, 0.53 20.34 C0.37 15.76, 1.45 10.65, 5.26 7.3 C9.07 3.95, 19.96 1.35, 23.37 0.21 C26.78 -0.93, 25.84 0.1, 25.72 0.49 M26.04 0.48 C31.15 0.16, 36.34 2.27, 40.64 4.66 C44.94 7.04, 50.25 10.61, 51.83 14.8 C53.42 19, 52.8 25.94, 50.13 29.84 C47.47 33.74, 41.02 36.41, 35.84 38.21 C30.66 40.01, 24.39 41.78, 19.03 40.64 C13.68 39.51, 6.98 35.15, 3.69 31.41 C0.4 27.67, -1.38 22.52, -0.7 18.2 C-0.02 13.87, 3.3 8.62, 7.78 5.46 C12.26 2.29, 23.39 -0.01, 26.17 -0.8 C28.94 -1.59, 24.44 0.03, 24.45 0.73" stroke="#1e1e1e" stroke-width="2" fill="none"></path></g><g stroke-linecap="round"><g transform="translate(232.02524955686283 104.08641969528048) rotate(0 -0.4019018223302737 28.713725817706433)"><path d="M0.2 -1.12 C0.16 8.41, 0.4 47.65, 0.37 57.63 M-1.16 0.91 C-1.32 10.5, -0.17 48.7, -0.04 58.55" stroke="#1e1e1e" stroke-width="2" fill="none"></path></g></g><mask></mask><g stroke-linecap="round"><g transform="translate(234.14634330686283 107.60985719528048) rotate(0 21.21779416240753 14.508127377275372)"><path d="M-0.26 0.57 C2.18 2.5, 8.61 7.8, 15.77 12.38 C22.93 16.95, 38.16 25.33, 42.69 28.01 M1.81 -0.18 C4.52 1.33, 11.3 5.6, 17.96 10.5 C24.62 15.39, 37.58 25.99, 41.78 29.19" stroke="#1e1e1e" stroke-width="2" fill="none"></path></g></g><mask></mask><g stroke-linecap="round"><g transform="translate(227.90415580686283 108.50829469528048) rotate(0 -15.911281102541807 16.65937046312726)"><path d="M-0.74 1.17 C-6.13 6.69, -27.01 27.27, -32.48 32.57 M1.07 0.75 C-4.37 5.94, -26.99 25.65, -32.9 30.71" stroke="#1e1e1e" stroke-width="2" fill="none"></path></g></g><mask></mask></svg>